<?xml version="1.0" encoding="UTF-8" standalone="no"?><svg xmlns="http://www.w3.org/2000/svg" xmlns:xlink="http://www.w3.org/1999/xlink" contentStyleType="text/css" height="876px" preserveAspectRatio="none" style="width:719px;height:876px;background:#00000000;" version="1.1" viewBox="0 0 719 876" width="719px" zoomAndPan="magnify"><defs><linearGradient id="gnujtujmq16mv0" x1="50%" x2="50%" y1="0%" y2="100%"><stop offset="0%" stop-color="#FF0000"/><stop offset="100%" stop-color="#0000FF"/></linearGradient><linearGradient id="gnujtujmq16mv1" x1="50%" x2="50%" y1="0%" y2="100%"><stop offset="0%" stop-color="#8B0000"/><stop offset="100%" stop-color="#00008B"/></linearGradient><linearGradient id="gnujtujmq16mv2" x1="50%" x2="50%" y1="0%" y2="100%"><stop offset="0%" stop-color="#FFC0CB"/><stop offset="100%" stop-color="#ADD8E6"/></linearGradient><linearGradient id="gnujtujmq16mv3" x1="50%" x2="50%" y1="0%" y2="100%"><stop offset="0%" stop-color="#0000FF"/><stop offset="100%" stop-color="#008000"/></linearGradient><linearGradient id="gnujtujmq16mv4" x1="50%" x2="50%" y1="0%" y2="100%"><stop offset="0%" stop-color="#00008B"/><stop offset="100%" stop-color="#006400"/></linearGradient><linearGradient id="gnujtujmq16mv5" x1="50%" x2="50%" y1="0%" y2="100%"><stop offset="0%" stop-color="#FF0000"/><stop offset="100%" stop-color="#ADD8E6"/></linearGradient><linearGradient id="gnujtujmq16mv6" x1="50%" x2="50%" y1="0%" y2="100%"><stop offset="0%" stop-color="#8B0000"/><stop offset="100%" stop-color="#0000FF"/></linearGradient></defs><g><rect fill="#FFA500" height="40" rx="12.5" ry="12.5" style="stroke:#FF8C00;stroke-width:3.0;" width="123" x="7" y="607"/><text fill="#FFFFFF" font-family="sans-serif" font-size="14" lengthAdjust="spacing" textLength="113" x="12" y="632.7285">Campfire Cooking</text><rect fill="#FFA500" height="40" rx="12.5" ry="12.5" style="stroke:#FF8C00;stroke-width:3.0;" width="62" x="221" y="607"/><text fill="#FFFFFF" font-family="sans-serif" font-size="14" lengthAdjust="spacing" textLength="52" x="226" y="632.7285">Cooking</text><rect fill="#FFA500" height="40" rx="12.5" ry="12.5" style="stroke:#FF8C00;stroke-width:3.0;" width="53" x="413" y="607"/><text fill="#FFFFFF" font-family="sans-serif" font-size="14" lengthAdjust="spacing" textLength="43" x="418" y="632.7285">Baking</text><rect fill="#FFD700" height="40" rx="12.5" ry="12.5" style="stroke:#FFA500;stroke-width:3.0;" width="120" x="579" y="607"/><text fill="#000000" font-family="sans-serif" font-size="14" lengthAdjust="spacing" textLength="110" x="584" y="632.7285">Advanced Baking</text><rect fill="#FFD700" height="40" rx="12.5" ry="12.5" style="stroke:#FFA500;stroke-width:3.0;" width="129" x="375" y="682"/><text fill="#000000" font-family="sans-serif" font-size="14" lengthAdjust="spacing" textLength="119" x="380" y="707.7285">Advanced Cooking</text><rect fill="#FFD700" height="40" rx="12.5" ry="12.5" style="stroke:#FFA500;stroke-width:3.0;" width="148" x="565" y="682"/><text fill="#000000" font-family="sans-serif" font-size="14" lengthAdjust="spacing" textLength="138" x="570" y="707.7285">Cutting Edge Cooking</text><rect fill="#FFA500" height="40" rx="12.5" ry="12.5" style="stroke:#FF8C00;stroke-width:3.0;" width="50" x="414.5" y="532"/><text fill="#FFFFFF" font-family="sans-serif" font-size="14" lengthAdjust="spacing" textLength="39" x="420" y="557.7285">Milling</text><rect fill="#FFA500" height="40" rx="12.5" ry="12.5" style="stroke:#FF8C00;stroke-width:3.0;" width="58" x="39.5" y="682"/><text fill="#FFFFFF" font-family="sans-serif" font-size="14" lengthAdjust="spacing" textLength="48" x="44.5" y="707.7285">Hunting</text><rect fill="#FFA500" height="40" rx="12.5" ry="12.5" style="stroke:#FF8C00;stroke-width:3.0;" width="66" x="219" y="682"/><text fill="#FFFFFF" font-family="sans-serif" font-size="14" lengthAdjust="spacing" textLength="56" x="224" y="707.7285">Butchery</text><rect fill="#FFA500" height="40" rx="12.5" ry="12.5" style="stroke:#FF8C00;stroke-width:3.0;" width="73" x="32" y="495"/><text fill="#FFFFFF" font-family="sans-serif" font-size="14" lengthAdjust="spacing" textLength="63" x="37" y="520.7285">Gathering</text><rect fill="#FFA500" height="40" rx="12.5" ry="12.5" style="stroke:#FF8C00;stroke-width:3.0;" width="62" x="221" y="457"/><text fill="#FFFFFF" font-family="sans-serif" font-size="14" lengthAdjust="spacing" textLength="52" x="226" y="482.7285">Farming</text><rect fill="#FFD700" height="40" rx="12.5" ry="12.5" style="stroke:#FFA500;stroke-width:3.0;" width="71" x="404" y="457"/><text fill="#000000" font-family="sans-serif" font-size="14" lengthAdjust="spacing" textLength="61" x="409" y="482.7285">Fertilizers</text><rect fill="url(#gnujtujmq16mv0)" height="40" rx="12.5" ry="12.5" style="stroke:url(#gnujtujmq16mv1);stroke-width:3.0;" width="65" x="219.5" y="532"/><text fill="#FFFFFF" font-family="sans-serif" font-size="14" lengthAdjust="spacing" textLength="55" x="224.5" y="557.7285">Tailoring</text><rect fill="url(#gnujtujmq16mv0)" height="40" rx="12.5" ry="12.5" style="stroke:url(#gnujtujmq16mv1);stroke-width:3.0;" width="61" x="38" y="83"/><text fill="#FFFFFF" font-family="sans-serif" font-size="14" lengthAdjust="spacing" textLength="51" x="43" y="108.7285">Logging</text><rect fill="url(#gnujtujmq16mv0)" height="40" rx="12.5" ry="12.5" style="stroke:url(#gnujtujmq16mv1);stroke-width:3.0;" width="73" x="215.5" y="83"/><text fill="#FFFFFF" font-family="sans-serif" font-size="14" lengthAdjust="spacing" textLength="63" x="220.5" y="108.7285">Carpentry</text><rect fill="url(#gnujtujmq16mv2)" height="40" rx="12.5" ry="12.5" style="stroke:url(#gnujtujmq16mv0);stroke-width:3.0;" width="91" x="394" y="10"/><text fill="#000000" font-family="sans-serif" font-size="14" lengthAdjust="spacing" textLength="81" x="399" y="35.7285">Paper Milling</text><rect fill="url(#gnujtujmq16mv2)" height="40" rx="12.5" ry="12.5" style="stroke:url(#gnujtujmq16mv0);stroke-width:3.0;" width="84" x="597" y="7"/><text fill="#000000" font-family="sans-serif" font-size="14" lengthAdjust="spacing" textLength="74" x="602" y="32.7285">Composites</text><rect fill="url(#gnujtujmq16mv3)" height="40" rx="12.5" ry="12.5" style="stroke:url(#gnujtujmq16mv4);stroke-width:3.0;" width="124" x="190" y="195"/><text fill="#FFFFFF" font-family="sans-serif" font-size="14" lengthAdjust="spacing" textLength="114" x="195" y="220.7285">Basic Engineering</text><rect fill="url(#gnujtujmq16mv5)" height="40" rx="12.5" ry="12.5" style="stroke:url(#gnujtujmq16mv6);stroke-width:3.0;" width="77" x="401" y="157"/><text fill="#FFFFFF" font-family="sans-serif" font-size="14" lengthAdjust="spacing" textLength="67" x="406" y="182.7285">Mechanics</text><rect fill="url(#gnujtujmq16mv2)" height="40" rx="12.5" ry="12.5" style="stroke:url(#gnujtujmq16mv0);stroke-width:3.0;" width="79" x="599.5" y="82"/><text fill="#000000" font-family="sans-serif" font-size="14" lengthAdjust="spacing" textLength="69" x="604.5" y="107.7285">Electronics</text><rect fill="url(#gnujtujmq16mv2)" height="40" rx="12.5" ry="12.5" style="stroke:url(#gnujtujmq16mv0);stroke-width:3.0;" width="60" x="609" y="157"/><text fill="#000000" font-family="sans-serif" font-size="14" lengthAdjust="spacing" textLength="50" x="614" y="182.7285">Industry</text><rect fill="url(#gnujtujmq16mv2)" height="40" rx="12.5" ry="12.5" style="stroke:url(#gnujtujmq16mv0);stroke-width:3.0;" width="74" x="602" y="232"/><text fill="#000000" font-family="sans-serif" font-size="14" lengthAdjust="spacing" textLength="64" x="607" y="257.7285">Oil Drilling</text><rect fill="#008000" height="40" rx="12.5" ry="12.5" style="stroke:#006400;stroke-width:3.0;" width="51" x="43" y="345"/><text fill="#FFFFFF" font-family="sans-serif" font-size="14" lengthAdjust="spacing" textLength="41" x="48" y="370.7285">Mining</text><rect fill="#008000" height="40" rx="12.5" ry="12.5" style="stroke:#006400;stroke-width:3.0;" width="64" x="220" y="307"/><text fill="#FFFFFF" font-family="sans-serif" font-size="14" lengthAdjust="spacing" textLength="54" x="225" y="332.7285">Masonry</text><rect fill="#008000" height="40" rx="12.5" ry="12.5" style="stroke:#006400;stroke-width:3.0;" width="55" x="412" y="232"/><text fill="#FFFFFF" font-family="sans-serif" font-size="14" lengthAdjust="spacing" textLength="45" x="417" y="257.7285">Pottery</text><rect fill="#90EE90" height="40" rx="12.5" ry="12.5" style="stroke:#008000;stroke-width:3.0;" width="131" x="573.5" y="307"/><text fill="#000000" font-family="sans-serif" font-size="14" lengthAdjust="spacing" textLength="121" x="578.5" y="332.7285">Advanced Masonry</text><rect fill="#008000" height="40" rx="12.5" ry="12.5" style="stroke:#006400;stroke-width:3.0;" width="94" x="392.5" y="307"/><text fill="#FFFFFF" font-family="sans-serif" font-size="14" lengthAdjust="spacing" textLength="84" x="397.5" y="332.7285">Glassworking</text><rect fill="#008000" height="40" rx="12.5" ry="12.5" style="stroke:#006400;stroke-width:3.0;" width="64" x="220" y="382"/><text fill="#FFFFFF" font-family="sans-serif" font-size="14" lengthAdjust="spacing" textLength="54" x="225" y="407.7285">Smelting</text><rect fill="#008000" height="40" rx="12.5" ry="12.5" style="stroke:#006400;stroke-width:3.0;" width="131" x="374" y="382"/><text fill="#FFFFFF" font-family="sans-serif" font-size="14" lengthAdjust="spacing" textLength="121" x="379" y="407.7285">Advanced Smelting</text><!--MD5=[7fdf2c72a3266465c68372a49735c937]
link Campfire to Cooking--><g id="link_Campfire_Cooking"><path d="M130.19,627 C158.67,627 191.6,627 215.88,627 " fill="none" id="Campfire-to-Cooking" style="stroke:#808080;stroke-width:2.0;"/><polygon fill="#808080" points="220.92,627,211.92,623,215.92,627,211.92,631,220.92,627" style="stroke:#808080;stroke-width:2.0;"/></g><!--MD5=[2e95a296f3c14642036db7a0bb42b33b]
link Cooking to Baking--><g id="link_Cooking_Baking"><path d="M283.22,627 C317.42,627 372.87,627 407.42,627 " fill="none" id="Cooking-to-Baking" style="stroke:#808080;stroke-width:2.0;"/><polygon fill="#808080" points="412.78,627,403.78,623,407.78,627,403.78,631,412.78,627" style="stroke:#808080;stroke-width:2.0;"/></g><!--MD5=[3ec222e13cee0f3d04547d21bf7a27c8]
link Baking to A_Baking--><g id="link_Baking_A_Baking"><path d="M466.32,627 C493.43,627 537.1,627 573.61,627 " fill="none" id="Baking-to-A_Baking" style="stroke:#808080;stroke-width:2.0;"/><polygon fill="#808080" points="578.94,627,569.94,623,573.94,627,569.94,631,578.94,627" style="stroke:#808080;stroke-width:2.0;"/></g><!--MD5=[889cb02fee25dc221871c10b3eb07a7d]
link Cooking to A_Cooking--><g id="link_Cooking_A_Cooking"><path d="M283.22,639.22 C310.42,650.22 351.05,666.64 383.93,679.94 " fill="none" id="Cooking-to-A_Cooking" style="stroke:#808080;stroke-width:2.0;"/><polygon fill="#808080" points="388.73,681.88,381.8856,674.7981,384.0946,680.0058,378.8868,682.2148,388.73,681.88" style="stroke:#808080;stroke-width:2.0;"/></g><!--MD5=[ce35365d60026cc3666a9a85f8ea2fdd]
link A_Cooking to C_Cooking--><g id="link_A_Cooking_C_Cooking"><path d="M504.08,702 C521.81,702 541.27,702 559.74,702 " fill="none" id="A_Cooking-to-C_Cooking" style="stroke:#808080;stroke-width:2.0;"/><polygon fill="#808080" points="564.92,702,555.92,698,559.92,702,555.92,706,564.92,702" style="stroke:#808080;stroke-width:2.0;"/></g><!--MD5=[9c186bf52294efffc649c400860b6e28]
link Cooking to Milling--><g id="link_Cooking_Milling"><path d="M283.22,614.78 C318.15,600.66 375.23,577.58 409.6,563.68 " fill="none" id="Cooking-to-Milling" style="stroke:#808080;stroke-width:2.0;"/><polygon fill="#808080" points="414.5,561.7,404.6568,561.3652,409.8646,563.5742,407.6556,568.7819,414.5,561.7" style="stroke:#808080;stroke-width:2.0;"/></g><!--MD5=[ca680975548b4ae711901127c95ae2e7]
link Hunting to Butchery--><g id="link_Hunting_Butchery"><path d="M97.86,702 C129,702 179.12,702 213.49,702 " fill="none" id="Hunting-to-Butchery" style="stroke:#808080;stroke-width:2.0;"/><polygon fill="#808080" points="218.86,702,209.8715,697.9743,213.86,701.9857,209.8486,705.9743,218.86,702" style="stroke:#808080;stroke-width:2.0;"/></g><!--MD5=[c2d5875af361527374977eba2b22d4cd]
link Cooking to Butchery--><g id="link_Cooking_Butchery"><path d="M252,647.12 C252,656.96 252,666.8 252,676.64 " fill="none" id="Cooking-to-Butchery" style="stroke:#808080;stroke-width:2.0;"/><polygon fill="#808080" points="252,681.79,256,672.79,252,676.79,248,672.79,252,681.79" style="stroke:#808080;stroke-width:2.0;"/></g><!--MD5=[618187147d156b249f863a292306bdd4]
link Gathering to Farming--><g id="link_Gathering_Farming"><path d="M105.36,507.49 C137.43,500.78 184.14,491 215.95,484.34 " fill="none" id="Gathering-to-Farming" style="stroke:#808080;stroke-width:2.0;"/><polygon fill="#808080" points="220.93,483.3,211.3048,481.2129,216.0344,484.3163,212.931,489.0459,220.93,483.3" style="stroke:#808080;stroke-width:2.0;"/></g><!--MD5=[05afd689ebab9898b50a542641344787]
link Farming to Milling--><g id="link_Farming_Milling"><path d="M283.22,489.22 C318.15,503.34 375.23,526.42 409.6,540.32 " fill="none" id="Farming-to-Milling" style="stroke:#808080;stroke-width:2.0;"/><polygon fill="#808080" points="414.5,542.3,407.6556,535.2181,409.8646,540.4258,404.6568,542.6348,414.5,542.3" style="stroke:#808080;stroke-width:2.0;"/></g><!--MD5=[2cd8b4dc1414f98f0b1052eed4f8d01e]
link Farming to Fertilizers--><g id="link_Farming_Fertilizers"><path d="M283.22,477 C314.6,477 363.85,477 398.45,477 " fill="none" id="Farming-to-Fertilizers" style="stroke:#808080;stroke-width:2.0;"/><polygon fill="#808080" points="403.88,477,394.88,473,398.88,477,394.88,481,403.88,477" style="stroke:#808080;stroke-width:2.0;"/></g><!--MD5=[ff2750762907883ca843932c1b749fa5]
link Gathering to Tailoring--><g id="link_Gathering_Tailoring"><path d="M105.36,522.31 C136.94,528.75 182.71,538.08 214.49,544.56 " fill="none" id="Gathering-to-Tailoring" style="stroke:#808080;stroke-width:2.0;"/><polygon fill="#808080" points="219.46,545.57,211.4416,539.8511,214.561,544.5702,209.8419,547.6896,219.46,545.57" style="stroke:#808080;stroke-width:2.0;"/></g><!--MD5=[2d98e16898ce29f14ba684b30625d015]
link Logging to Carpentry--><g id="link_Logging_Carpentry"><path d="M99.07,103 C129.2,103 176.17,103 209.91,103 " fill="none" id="Logging-to-Carpentry" style="stroke:#808080;stroke-width:2.0;"/><polygon fill="#808080" points="215.21,103,206.21,99,210.21,103,206.21,107,215.21,103" style="stroke:#808080;stroke-width:2.0;"/></g><!--MD5=[2d469011a051db35efaaf1f720dc8ad1]
link Carpentry to Paper--><g id="link_Carpentry_Paper"><path d="M288.77,88.92 C317.25,77.72 357.43,61.9 389,49.48 " fill="none" id="Carpentry-to-Paper" style="stroke:#808080;stroke-width:2.0;"/><polygon fill="#808080" points="393.99,47.51,384.1503,47.0863,389.3378,49.3422,387.0819,54.5298,393.99,47.51" style="stroke:#808080;stroke-width:2.0;"/></g><!--MD5=[1212d2a58bf0180c80b68ac3e6ab4a17]
link Carpentry to Composites--><g id="link_Carpentry_Composites"><path d="M288.78,99.6 C337.9,94.54 428.83,83.8 505,67 C534.25,60.55 566.43,50.94 591.81,42.76 " fill="none" id="Carpentry-to-Composites" style="stroke:#808080;stroke-width:2.0;"/><polygon fill="#808080" points="596.79,41.14,586.995,40.1117,592.0339,42.6825,589.463,47.7214,596.79,41.14" style="stroke:#808080;stroke-width:2.0;"/></g><!--MD5=[7702c35b54b6f6042da37b4881157b5e]
link Carpentry to Engineering--><g id="link_Carpentry_Engineering"><path d="M252,123.1 C252,145.34 252,167.58 252,189.83 " fill="none" id="Carpentry-to-Engineering" style="stroke:#808080;stroke-width:2.0;"/><polygon fill="#808080" points="252,194.88,256.0257,185.8915,252.0143,189.88,248.0257,185.8686,252,194.88" style="stroke:#808080;stroke-width:2.0;"/></g><!--MD5=[db2ece7f0dd6616e6ac0677b60aa73c4]
link Engineering to Mechanics--><g id="link_Engineering_Mechanics"><path d="M314.25,202.45 C340.95,196.98 371.6,190.7 395.78,185.75 " fill="none" id="Engineering-to-Mechanics" style="stroke:#808080;stroke-width:2.0;"/><polygon fill="#808080" points="400.84,184.71,391.2219,182.5904,395.941,185.7098,392.8216,190.4289,400.84,184.71" style="stroke:#808080;stroke-width:2.0;"/></g><!--MD5=[0c7fec27e9ff7c16d17942b0179d2067]
link Engineering to Pottery--><g id="link_Engineering_Pottery"><path d="M314.25,227.22 C345.32,233.41 381.73,240.68 407.08,245.73 " fill="none" id="Engineering-to-Pottery" style="stroke:#808080;stroke-width:2.0;"/><polygon fill="#808080" points="411.99,246.71,403.9397,241.0362,407.0855,245.7377,402.384,248.8834,411.99,246.71" style="stroke:#808080;stroke-width:2.0;"/></g><!--MD5=[a5b6a5d43a6c5acf5d4bb906211aca08]
link Engineering to Glassworking--><g id="link_Engineering_Glassworking"><path d="M285.52,235.09 C309.83,250.06 343.92,270.94 374,289 C382.27,293.97 391.17,299.25 399.64,304.25 " fill="none" id="Engineering-to-Glassworking" style="stroke:#808080;stroke-width:2.0;"/><polygon fill="#808080" points="404.29,306.99,398.5676,298.9741,399.9825,304.4512,394.5055,305.8661,404.29,306.99" style="stroke:#808080;stroke-width:2.0;"/></g><!--MD5=[ce4be7092bb155e298a914c1833c83bb]
link Mechanics to Composites--><g id="link_Mechanics_Composites"><path d="M469.98,156.83 C481.29,148.64 494.1,138.8 505,129 C534.23,102.71 533.64,87.71 565,64 C573.28,57.74 582.78,52.04 592.13,47.09 " fill="none" id="Mechanics-to-Composites" style="stroke:#808080;stroke-width:2.0;"/><polygon fill="#808080" points="596.7,44.72,586.8686,45.3054,592.2597,47.0187,590.5464,52.4098,596.7,44.72" style="stroke:#808080;stroke-width:2.0;"/></g><!--MD5=[fb61c3c2adea2a39f5b6ed7c78a764c4]
link Mechanics to Electronics--><g id="link_Mechanics_Electronics"><path d="M478.11,162.72 C511.18,150.16 559.33,131.87 594.14,118.66 " fill="none" id="Mechanics-to-Electronics" style="stroke:#808080;stroke-width:2.0;"/><polygon fill="#808080" points="599.18,116.74,589.3465,116.191,594.5048,118.5128,592.183,123.6712,599.18,116.74" style="stroke:#808080;stroke-width:2.0;"/></g><!--MD5=[b78ad9063110915b3d0e543651ccda18]
link Mechanics to Industry--><g id="link_Mechanics_Industry"><path d="M478.11,177 C514.38,177 568.79,177 603.85,177 " fill="none" id="Mechanics-to-Industry" style="stroke:#808080;stroke-width:2.0;"/><polygon fill="#808080" points="608.87,177,599.87,173,603.87,177,599.87,181,608.87,177" style="stroke:#808080;stroke-width:2.0;"/></g><!--MD5=[d0a7656f484e69e75a54969be7718e1c]
link Mechanics to Oil--><g id="link_Mechanics_Oil"><path d="M478.11,191.28 C512.04,204.17 561.83,223.07 596.81,236.36 " fill="none" id="Mechanics-to-Oil" style="stroke:#808080;stroke-width:2.0;"/><polygon fill="#808080" points="601.86,238.28,594.8745,231.3372,597.1878,236.4994,592.0256,238.8127,601.86,238.28" style="stroke:#808080;stroke-width:2.0;"/></g><!--MD5=[f41f20a0cb15934fa1725007b6e16e7d]
link Mechanics to A_Masonry--><g id="link_Mechanics_A_Masonry"><path d="M478.25,195.5 C487.45,200.84 496.96,207.11 505,214 C537.42,241.77 532.02,261.89 565,289 C571.89,294.66 579.76,299.83 587.73,304.39 " fill="none" id="Mechanics-to-A_Masonry" style="stroke:#808080;stroke-width:2.0;"/><polygon fill="#808080" points="592.16,306.87,586.2548,298.9878,587.7953,304.4309,582.3522,305.9714,592.16,306.87" style="stroke:#808080;stroke-width:2.0;"/></g><!--MD5=[8c0267790dc55690d5a4b7358b5d5d5b]
link Mining to Masonry--><g id="link_Mining_Masonry"><path d="M94.36,359.8 C125.45,353.29 178.93,342.09 214.63,334.62 " fill="none" id="Mining-to-Masonry" style="stroke:#808080;stroke-width:2.0;"/><polygon fill="#808080" points="219.76,333.54,210.1302,331.4742,214.8666,334.5672,211.7737,339.3036,219.76,333.54" style="stroke:#808080;stroke-width:2.0;"/></g><!--MD5=[e66f9cf809a5a527fa72146397359c63]
link Masonry to Pottery--><g id="link_Masonry_Pottery"><path d="M284.05,314.45 C318.16,300.65 372.65,278.62 406.96,264.75 " fill="none" id="Masonry-to-Pottery" style="stroke:#808080;stroke-width:2.0;"/><polygon fill="#808080" points="411.87,262.77,402.0268,262.4352,407.2346,264.6442,405.0256,269.8519,411.87,262.77" style="stroke:#808080;stroke-width:2.0;"/></g><!--MD5=[160e7154a601cb0e5b3bf95cfdd4ac6b]
link Pottery to A_Masonry--><g id="link_Pottery_A_Masonry"><path d="M467.14,262.11 C495.96,273.06 542.79,290.85 580.15,305.03 " fill="none" id="Pottery-to-A_Masonry" style="stroke:#808080;stroke-width:2.0;"/><polygon fill="#808080" points="585.12,306.92,578.1415,299.9701,580.4496,305.1347,575.285,307.4427,585.12,306.92" style="stroke:#808080;stroke-width:2.0;"/></g><!--MD5=[9dfc3104a012b229c04e9fb5df840a94]
link Masonry to Glassworking--><g id="link_Masonry_Glassworking"><path d="M284.05,327 C312.15,327 354.07,327 387.15,327 " fill="none" id="Masonry-to-Glassworking" style="stroke:#808080;stroke-width:2.0;"/><polygon fill="#808080" points="392.38,327,383.38,323,387.38,327,383.38,331,392.38,327" style="stroke:#808080;stroke-width:2.0;"/></g><!--MD5=[e2b6bbf97b2e1872e0f7f7b6c478a7b2]
link Mining to Smelting--><g id="link_Mining_Smelting"><path d="M94.36,370.07 C125.45,376.41 178.93,387.31 214.63,394.59 " fill="none" id="Mining-to-Smelting" style="stroke:#808080;stroke-width:2.0;"/><polygon fill="#808080" points="219.76,395.63,211.7416,389.9111,214.861,394.6302,210.1419,397.7496,219.76,395.63" style="stroke:#808080;stroke-width:2.0;"/></g><!--MD5=[215459e1286336d1d8332bc6cbc8a5a9]
link Smelting to A_Smelting--><g id="link_Smelting_A_Smelting"><path d="M284.05,402 C307.16,402 339.61,402 368.82,402 " fill="none" id="Smelting-to-A_Smelting" style="stroke:#808080;stroke-width:2.0;"/><polygon fill="#808080" points="373.85,402,364.85,398,368.85,402,364.85,406,373.85,402" style="stroke:#808080;stroke-width:2.0;"/></g><rect fill="#F5F5F5" height="125.2031" rx="7.5" ry="7.5" style="stroke:#000000;stroke-width:1.0;" width="115" x="295" y="735"/><text fill="#000000" font-family="sans-serif" font-size="18" lengthAdjust="spacing" textLength="103" x="301" y="759.6855">Who is who?</text><text fill="#FF0000" font-family="sans-serif" font-size="18" font-weight="bold" lengthAdjust="spacing" textLength="73" x="301" y="782.3262">Quacker</text><text fill="#000000" font-family="sans-serif" font-size="18" lengthAdjust="spacing" textLength="5" x="374" y="782.3262"> </text><text fill="#0000FF" font-family="sans-serif" font-size="18" font-weight="bold" lengthAdjust="spacing" textLength="56" x="301" y="804.9668">Divine</text><text fill="#000000" font-family="sans-serif" font-size="18" lengthAdjust="spacing" textLength="5" x="357" y="804.9668"> </text><text fill="#008000" font-family="sans-serif" font-size="18" font-weight="bold" lengthAdjust="spacing" textLength="33" x="301" y="827.6074">Phil</text><text fill="#000000" font-family="sans-serif" font-size="18" lengthAdjust="spacing" textLength="5" x="334" y="827.6074"> </text><text fill="#FFA500" font-family="sans-serif" font-size="18" font-weight="bold" lengthAdjust="spacing" textLength="58" x="301" y="850.248">Kraker</text><text fill="#000000" font-family="sans-serif" font-size="18" lengthAdjust="spacing" textLength="5" x="359" y="850.248"> </text><!--MD5=[77ae713f8f46661334d723797461b571]
@startuml Eco_Specialities
hide empty description
left to right direction
skinparam style strictuml
skinparam backgroundcolor transparent

skinparam legend {
    BackgroundColor WhiteSmoke
    FontSize 18
}

skinparam State {
    BorderColor black
    BorderThickness 3
    BackgroundColor white
    ArrowColor Gray
    ArrowThickness 2
    
    BorderColor<<Majkol>> Green
    BackgroundColor<<Majkol>> LightGreen
    BorderColor<<Majkol_Unlocked>> DarkGreen
    BackgroundColor<<Majkol_Unlocked>> Green
    FontColor<<Majkol_Unlocked>> White
    
    BorderColor<<Pim>> Orange
    BackgroundColor<<Pim>> Gold
    BorderColor<<Pim_Unlocked>> DarkOrange
    BackgroundColor<<Pim_Unlocked>> Orange
    FontColor<<Pim_Unlocked>> White
    
    BorderColor<<Quacker>> Red
    BackgroundColor<<Quacker>> Pink
    BorderColor<<Quacker_Unlocked>> DarkRed
    BackgroundColor<<Quacker_Unlocked>> Red
    FontColor<<Quacker_Unlocked>> White
    
    BorderColor<<Quacker+Niels>> Red-Blue
    BackgroundColor<<Quacker+Niels>> Pink-LightBlue
    BorderColor<<Quacker_Unlocked+Niels_Unlocked>> DarkRed-DarkBlue
    BackgroundColor<<Quacker_Unlocked+Niels_Unlocked>> Red-Blue
    FontColor<<Quacker_Unlocked+Niels_Unlocked>> White
    
    BorderColor<<Quacker+Niels_Unlocked>> Red-DarkBlue
    BackgroundColor<<Quacker+Niels_Unlocked>> Pink-Blue
    FontColor<<Quacker+Niels_Unlocked>> White
    
    BorderColor<<Quacker_Unlocked+Niels>> DarkRed-Blue
    BackgroundColor<<Quacker_Unlocked+Niels>> Red-LightBlue
    FontColor<<Quacker_Unlocked+Niels>> White
    
    BorderColor<<Niels>> Blue
    BackgroundColor<<Niels>> LightBlue
    BorderColor<<Niels_Unlocked>> DarkBlue
    BackgroundColor<<Niels_Unlocked>> Blue
    FontColor<<Niels_Unlocked>> White
    
    BorderColor<<Niels+Maikel>> Blue-Green
    BackgroundColor<<Niels+Maikel>> LightBlue-LightGreen
    BorderColor<<Niels_Unlocked+Maikel_Unlocked>> DarkBlue-DarkGreen
    BackgroundColor<<Niels_Unlocked+Maikel_Unlocked>> Blue-Green
    FontColor<<Niels_Unlocked+Maikel_Unlocked>> White
}

State "Campfire Cooking" as Campfire<<Pim_Unlocked>>
State "Cooking"<<Pim_Unlocked>>
State "Baking"<<Pim_Unlocked>>
State "Advanced Baking" as A_Baking<<Pim>>
State "Advanced Cooking" as A_Cooking<<Pim>>
State "Cutting Edge Cooking" as C_Cooking<<Pim>>
State "Milling"<<Pim_Unlocked>>
State "Hunting"<<Pim_Unlocked>>
State "Butchery"<<Pim_Unlocked>>
State "Gathering"<<Pim_Unlocked>>
State "Farming"<<Pim_Unlocked>>
State "Fertilizers"<<Pim>>
State "Tailoring"<<Quacker_Unlocked+Niels_Unlocked>>
State "Logging"<<Quacker_Unlocked+Niels_Unlocked>>
State "Carpentry"<<Quacker_Unlocked+Niels_Unlocked>>
State "Paper Milling" as Paper<<Quacker+Niels>>
State "Composites"<<Quacker+Niels>>
State "Basic Engineering" as Engineering<<Niels_Unlocked+Maikel_Unlocked>>
State "Mechanics"<<Quacker_Unlocked+Niels>>
State "Electronics"<<Quacker+Niels>>
State "Industry"<<Quacker+Niels>>
State "Oil Drilling" as Oil<<Quacker+Niels>>
State "Mining"<<Majkol_Unlocked>>
State "Masonry"<<Majkol_Unlocked>>
State "Pottery"<<Majkol_Unlocked>>
State "Advanced Masonry" as A_Masonry<<Majkol>>
State "Glassworking"<<Majkol_Unlocked>>
State "Smelting"<<Majkol_Unlocked>>
State "Advanced Smelting" as A_Smelting<<Majkol_Unlocked>>

Campfire - -> Cooking
Cooking - -> Baking
Baking - -> A_Baking
Cooking - -> A_Cooking
A_Cooking - -> C_Cooking
Cooking - -> Milling

Hunting - -> Butchery
Cooking -right-> Butchery

Gathering - -> Farming
Farming - -> Milling
Farming - -> Fertilizers
Gathering - -> Tailoring

Logging - -> Carpentry
Carpentry - -> Paper
Carpentry - -> Composites
Carpentry -right-> Engineering
Engineering - -> Mechanics
Engineering - -> Pottery
Engineering - -> Glassworking
Mechanics - -> Composites
Mechanics - -> Electronics
Mechanics - -> Industry
Mechanics - -> Oil
Mechanics - -> A_Masonry

Mining - -> Masonry
Masonry - -> Pottery
Pottery - -> A_Masonry
Masonry - -> Glassworking
Mining - -> Smelting
Smelting - -> A_Smelting

legend
Who is who?
<font color=Red><B>Quacker</b></font> 
<font color=Blue><B>Divine</b></font> 
<font color=Green><B>Phil</b></font> 
<font color=Orange><B>Kraker</b></font> 
endlegend

@enduml

PlantUML version 1.2022.5(Sat Apr 30 12:55:52 CEST 2022)
(GPL source distribution)
Java Runtime: Java(TM) SE Runtime Environment
JVM: Java HotSpot(TM) 64-Bit Server VM
Default Encoding: Cp1252
Language: en
Country: GB
--></g></svg>